<?xml version="1.0" encoding="utf-8"?>
<!-- Generator: Adobe Illustrator 26.3.1, SVG Export Plug-In . SVG Version: 6.00 Build 0)  -->
<svg version="1.1" id="Layer_1" xmlns="http://www.w3.org/2000/svg" xmlns:xlink="http://www.w3.org/1999/xlink" x="0px" y="0px"
	 viewBox="0 0 500 500" style="enable-background:new 0 0 500 500;" xml:space="preserve">
<style type="text/css">
	.st0{opacity:0.31;}
	.st1{fill:#DFF0E9;}
	.st2{fill:#CFEAE3;}
	.st3{fill:#4B3D52;}
	.st4{fill:#8CB5DC;}
	.st5{fill:#739FC0;}
	.st6{fill:#3E3244;}
	.st7{fill:#E7A07E;}
	.st8{fill:#D78C6C;}
	.st9{fill:#FFFFFF;}
	.st10{opacity:0.45;fill:#F07B52;enable-background:new    ;}
	.st11{fill:#17131A;}
	.st12{opacity:7.000000e-02;fill:#26486D;enable-background:new    ;}
	.st13{fill:#FFCE45;}
	.st14{fill:#F9A54B;}
	.st15{fill:#967F5E;}
	.st16{fill:#495956;}
	.st17{fill:#ACCDC7;}
	.st18{fill:#669966;}
	.st19{fill:#F7BF2E;}
	.st20{fill:#EF5574;}
	.st21{fill:#ACA673;}
	.st22{fill:#F6F0F2;}
	.st23{fill:#C06628;}
	.st24{opacity:0.3;enable-background:new    ;}
</style>
<g id="Asset_2" transform="translate(0 -41.892)">
	<g id="Layer_2_00000113332813577364182450000002043484109594891951_" transform="translate(0 41.892)">
		<g id="Layer_1_00000053544529928474865930000011758548869123626896_" transform="translate(0 0)">
			<g id="Group_1011" transform="translate(27.11)" class="st0">
				<path id="Path_2575" class="st1" d="M55.8,461c-28.7-1.8-56.8-18.3-70.6-46.6c-12.7-26.2-15.1-66.8-9.4-96
					c4.8-24.5,18.5-45.7,34-63.6c31.6-36.2,30.6-45.2,18.3-81.3c-8.4-24.6,13.4-72.8,27.6-96C83.3,32.4,114.2,2,162.9,0.1
					s98.5,28.8,118.7,78.6c17.4,42.8,40.3,93.2,81.6,135.2c15.7,15.9,24.5,33.4,35.3,51.3c19.2,31.9,25.1,73.5,15.4,110.5
					c-9.6,37-34.5,68.5-66,83.6"/>
			</g>
			<g id="Group_1012" transform="translate(90.092 59.896)" class="st0">
				<path id="Path_2576" class="st2" d="M338.3,397.3c22.8-1.3,45.2-13.7,56.1-35c10.1-19.7,12-50.2,7.5-72.1
					c-3.8-18.4-14.7-34.3-27-47.8c-25-27.2-57.3-47-78.4-77.7c-11.8-17.1-25.8-56.5-37.1-73.9c-22-33.8-48.1-56.1-86.5-61.6
					c-49.6-7.2-82.6,43.6-98.6,80.9c-13.8,32.2-10.2,71.2-27.2,101.6c-7.8,14-19.5,25.1-28.1,38.5C3.4,275-1,305.1,6.6,333.2
					C14.2,361,34,384.6,59,396"/>
			</g>
			<path id="Path_2578" class="st3" d="M325.8,178.5c-3.2,7.1-5.6,14.6-7,22.4c-1.2,7.5-1.6,15.2-3.5,22.5
				c-1.8,6.5-4.3,12.8-7.4,18.7c-0.3,0.5-0.5,1.2-0.5,1.8c0.2,1.2,0.9,2.2,2,2.8c15.1,10.8,34.6,13.1,51.8,6.2"/>
			<ellipse id="Ellipse_62" class="st4" cx="321.9" cy="211.1" rx="14.5" ry="18"/>
			<ellipse id="Ellipse_63" class="st5" cx="328.7" cy="213.6" rx="14.5" ry="18"/>
			<path id="Path_2579" class="st6" d="M361.2,252.8L331,189.5c-3.3,11.1-6.7,22.2-9.8,33.4c-1.2,3.7-2,7.5-2.4,11.3
				c-0.3,3.4-0.1,6.8,0.7,10.1c0.6,3.2,2.1,6.3,4.3,8.8c0.4,0.4,0.9,0.8,1.3,1.2C336.9,257.9,349.7,257.4,361.2,252.8z"/>
			<path id="Path_2580" class="st7" d="M354.9,250.6c1.4,7.7,2.5,16.4-2.3,22.6c-1.3,1.2-2.1,2.7-2.5,4.4c-0.1,2.2,2,3.9,4,4.9
				c7.9,3.9,17,4.4,25.2,1.3c0.7-0.2,1.3-0.6,1.8-1.1c1-1.3,0.4-3.1-0.3-4.6c-5.8-14-5.6-29.6,0.5-43.5"/>
			<path id="Path_2581" class="st8" d="M354.2,248.4c1.5,5.2,2,10.7,1.6,16.1c-0.1,0.2-0.1,0.4,0,0.5c0.2,0.2,0.5,0.1,0.7,0
				c5.3-1.6,9.7-5.3,12.2-10.3c1.9-3.8,2.7-8,2.5-12.2"/>
			<path id="Path_2582" class="st7" d="M336.4,179.5c-5.4,6.1-6.8,14.8-7.5,23c-0.8,7.2-0.8,14.4,0,21.6c0.8,7.2,3.7,14.1,8.2,19.8
				c2,2.3,4.3,4.4,6.8,6c1.7,1.2,3.7,2,5.7,2.5c3.9,0.8,7.9-0.3,11.7-1.5c8.7-2.8,17.6-6.6,22.9-14c7-9.6,11.6-34.8,13.4-46.6"/>
			<path id="Path_2583" class="st8" d="M325.5,186.9c8.2,7,18.1,11.7,28.7,13.4c6.1,0.9,12.4,1.2,18.6,0.9c2.3,0,4.6-0.2,6.9-0.7
				c3.2-0.7,6-2.6,7.8-5.3c1.8-2.8,1.8-6.3,0.1-9.1"/>
			<path id="Path_2584" class="st3" d="M395.4,154.9c-15.4-7.5-37.9-5.9-49,0.5c-11.1,6.4-15.9,12.2-21.7,25.6
				c-0.3,0.8-2.4,5.7-2.1,6.5c0.2,0.7,0.8,1.3,1.5,1.6c13.9,5.3,26.1,6.2,40.9,7c4.9,0.4,9.9,0.1,14.7-0.9c6.8,22.8,3.3,39.1-8.1,60
				c7.4,3.1,36.1,4.9,49.7-5.7c3.6-2.6,6.6-6,8.9-9.9c5.4-9.9,3.1-22.1,0.2-33c-2-8.2-4.9-16.1-8.7-23.6
				C415.5,171.7,407.2,160,395.4,154.9"/>
			<path id="Path_2585" class="st9" d="M341.3,229.7c1.1,3.5,2.4,6.7,5.5,8.7c3.2,1.8,7.1,1.9,10.4,0.2c3.3-1.6,6.4-5.4,8.7-8.2
				C357.7,231.2,349.5,231,341.3,229.7"/>
			<path id="Path_2586" class="st6" d="M405.2,248c-1-0.7-1.7-1.7-2.2-2.8c-0.6-2.3-0.4-4.7,0.6-6.8c1.2-3.7,1.8-7.7,1.8-11.6
				c0-4-1.5-7.8-4-10.8c-3.8-4.2-9.8-5.6-15.4-6.7l-3.5-0.7c2.1,16.3-1.9,30.1-10.8,46.7c7.4,3.1,36.1,4.9,49.7-5.7
				c0.5-0.4,1-0.8,1.5-1.2c-0.8,0.5-1.7,0.9-2.6,1.3C415.3,251.7,409.6,251.1,405.2,248L405.2,248z"/>
			<path id="Path_2589" class="st8" d="M350.6,211.5l-4.2,12.8l6.6,0.5"/>
			<path id="Path_2590" class="st6" d="M363.6,201.3c0.3-0.2,0.6-0.3,0.8-0.4l0.5-0.2h-0.2c0.4-0.2,0.9-0.3,1.3-0.5
				c0.5-0.2,1.1-0.3,1.7-0.4c0.4-0.1,0.7-0.1,1.1-0.2h-0.2c1.1-0.1,2.1-0.2,3.2-0.1l1,0.1h-0.2c1.1,0.1,2.1,0.4,3.2,0.8l0.9,0.4
				h-0.2c1.1,0.5,2.2,1.1,3.3,1.8c0.2,0.1,0.4,0.1,0.6,0c0.2-0.1,0.4-0.2,0.5-0.4c0.1-0.2,0.1-0.4,0-0.6c-0.1-0.2-0.2-0.4-0.4-0.5
				c-1.6-1.1-3.4-2-5.3-2.5c-1.5-0.4-3.1-0.7-4.7-0.6c-1.3,0-2.6,0.2-3.9,0.5c-0.9,0.2-1.9,0.6-2.7,1c-0.4,0.2-0.7,0.3-1.1,0.5l0,0
				c-0.2,0.1-0.3,0.3-0.4,0.5c-0.1,0.2-0.1,0.4,0,0.6c0.1,0.2,0.3,0.3,0.5,0.4c0.2,0.1,0.4,0,0.6-0.1L363.6,201.3z"/>
			<path id="Path_2591" class="st6" d="M342.4,201.4c-0.2-0.2-0.5-0.4-0.7-0.6l-0.5-0.3l0.2,0.1c-0.4-0.3-0.8-0.5-1.2-0.7
				c-0.5-0.3-1-0.5-1.6-0.7c-0.3-0.1-0.7-0.3-1-0.4h0.2c-1-0.3-2-0.6-3.1-0.7l-1-0.1h0.2c-1.1-0.1-2.2,0-3.2,0.2l-1,0.2h0.2
				c-1.2,0.3,0.4,1.1-1.8,0.5c0.7-1.2,1.9-2,3.3-2.2c1.6-0.2,3.2-0.1,4.8,0.2c1.3,0.3,2.6,0.7,3.8,1.2c0.9,0.4,1.7,0.9,2.5,1.4
				c0.3,0.2,0.6,0.5,0.9,0.7l0,0c0.2,0.1,0.2,0.3,0.3,0.5c0,0.2,0,0.4-0.2,0.6c-0.1,0.2-0.3,0.3-0.5,0.3
				C342.7,201.7,342.4,201.7,342.4,201.4L342.4,201.4z"/>
			<path id="Path_2592" class="st6" d="M364.1,210.1V210l0,0l0.3-0.4c0.2-0.2,0.4-0.4,0.6-0.5l0.4-0.4l0,0c0.3-0.3,0.7-0.5,1.1-0.7
				l0.4-0.2h-0.1c0.3-0.1,0.7-0.3,1.1-0.3h0.2c0.4,0,0.7,0,1.1,0h0.1c0.4,0.1,0.8,0.2,1.2,0.3l0.4,0.1h-0.1c0.5,0.2,1,0.5,1.5,0.8
				l0.4,0.3h-0.1l0.4,0.3c0.1,0.1,0.2,0.1,0.3,0.1c0.2,0,0.4-0.2,0.5-0.5c0-0.1-0.1-0.2-0.1-0.3c-0.5-0.4-1.1-0.8-1.7-1.2
				c-0.5-0.3-1-0.5-1.6-0.6c-0.5-0.1-1-0.2-1.5-0.2c-0.4,0-0.9,0-1.3,0.1c-0.4,0.1-0.8,0.2-1.2,0.4c-0.3,0.1-0.6,0.3-0.9,0.5
				c-0.3,0.2-0.6,0.4-0.8,0.6c-0.2,0.2-0.4,0.3-0.6,0.5c-0.1,0.1-0.3,0.3-0.4,0.4l-0.2,0.3l0,0c0,0.1,0,0.2,0,0.4
				c0,0.1,0.1,0.2,0.2,0.3c0.1,0.1,0.2,0.1,0.3,0C364,210.2,364.1,210.2,364.1,210.1L364.1,210.1z"/>
			<path id="Path_2593" class="st6" d="M331.3,209v-0.1l0,0l0.3-0.4c0.2-0.2,0.4-0.4,0.6-0.6l0.4-0.3h-0.1c0.3-0.3,0.7-0.5,1.1-0.7
				l0.4-0.2h-0.1c0.3-0.1,0.7-0.3,1.1-0.3h0.2c0.4,0,0.7,0,1.1,0h0.2c0.4,0.1,0.8,0.2,1.2,0.3l0.4,0.1h-0.1c0.5,0.2,1,0.5,1.5,0.8
				l0.4,0.3l0,0c0.1,0.1,0.2,0.2,0.4,0.3c0.1,0.1,0.2,0.1,0.3,0.1c0.2,0,0.4-0.2,0.5-0.4c0,0,0,0,0,0c0-0.1,0-0.2-0.1-0.3
				c-0.5-0.4-1.1-0.8-1.7-1.2c-0.5-0.3-1-0.5-1.6-0.6c-0.5-0.1-1-0.2-1.5-0.2c-0.4,0-0.9,0-1.3,0.1c-0.4,0.1-0.8,0.2-1.2,0.4
				c-0.3,0.1-0.6,0.3-0.9,0.5c-0.3,0.2-0.6,0.4-0.8,0.6c-0.2,0.2-0.4,0.3-0.6,0.5l-0.4,0.4l-0.2,0.3l0,0c0,0.1,0,0.2,0,0.3
				c0,0.1,0.1,0.2,0.2,0.3c0.1,0.1,0.2,0.1,0.4,0c0.1,0,0.2-0.1,0.3-0.2L331.3,209z"/>
			<circle id="Ellipse_64" class="st10" cx="374.1" cy="221.8" r="5.6"/>
			<circle id="Ellipse_65" class="st10" cx="333.4" cy="219.6" r="4.8"/>
			<g>
				<path id="Path_2587" class="st11" d="M355,209.1c-2.1-1.2-4.7-1.2-6.8,0l-0.7-1.1c2.5-1.5,5.7-1.5,8.2,0L355,209.1z"/>
				<path id="Path_2588" class="st11" d="M382.6,208.8l-3.5-0.1v-1.3h3.3L382.6,208.8z"/>
				<path id="Path_2594" class="st11" d="M335.8,196.5v1.5c6.1,0,11,4.9,11,11c0,6.1-4.9,11-11,11c-6.1,0-11-4.9-11-11
					c0-2.9,1.1-5.7,3.2-7.8c2.1-2.1,4.8-3.2,7.8-3.2L335.8,196.5 M335.8,196.5C335.8,196.5,335.8,196.5,335.8,196.5
					c-6.9,0-12.5,5.6-12.5,12.5c0,6.9,5.6,12.5,12.5,12.5c0,0,0,0,0,0c6.9,0,12.5-5.6,12.5-12.5c0,0,0,0,0,0
					C348.3,202.1,342.7,196.5,335.8,196.5L335.8,196.5z"/>
				<path id="Path_2595" class="st11" d="M367.2,196.5v1.5c6.1,0,11,4.9,11,11c0,6.1-4.9,11-11,11c-6.1,0-11-4.9-11-11
					c0-2.9,1.1-5.7,3.2-7.8c2.1-2.1,4.8-3.2,7.8-3.2L367.2,196.5 M367.2,196.5C367.2,196.5,367.2,196.5,367.2,196.5
					c-6.9,0-12.5,5.6-12.5,12.5c0,6.9,5.6,12.5,12.5,12.5c0,0,0,0,0,0c6.9,0,12.5-5.6,12.5-12.5c0,0,0,0,0,0
					C379.7,202.1,374.1,196.5,367.2,196.5L367.2,196.5z"/>
			</g>
			
				<ellipse id="Ellipse_66" transform="matrix(0.9954 -9.601948e-02 9.601948e-02 0.9954 -21.9326 35.1563)" class="st11" cx="354.3" cy="245.5" rx="4.3" ry="3.4"/>
			<path id="Path_2596" class="st11" d="M362.2,246.1c-2,0.2-3.9,0.2-5.9,0.2v-1.8c22.6,0.9,40-17.4,40.2-17.6l1.4,1.3
				C397.8,228.3,382.7,244.1,362.2,246.1z"/>
			<path id="Path_2597" class="st4" d="M323,194.4c1.8-12.6,8.5-26.7,19.4-33.8c9.7-6.4,22.8-6.8,33.5-2.7
				c9.3,3.6,15.4,11.5,18.4,20.7c2.6,7.9,2.9,15.9,3.6,24.1c0.2,2.7,4.4,2.7,4.2,0c-0.6-7.8-0.9-15.5-3-23.1
				c-2.9-9.9-8.5-18.9-17.7-23.8c-11.4-5.9-24.9-6.4-36.7-1.3c-9.2,4.2-15.9,12.4-20.2,21.4c-2.7,5.5-4.6,11.4-5.6,17.4
				C318.6,195.9,322.6,197,323,194.4L323,194.4z"/>
			<ellipse id="Ellipse_67" class="st4" cx="397.7" cy="216.2" rx="14.5" ry="18"/>
			<ellipse id="Ellipse_68" class="st5" cx="399.9" cy="216.1" rx="13.7" ry="17.1"/>
			<path id="Path_2598" class="st12" d="M268.1,128.4h-70.2c-5,0-9,4-9,9v41.1c0,5,4,9,9,9l0,0h49.8l18.8,13.4v-13.4h1.6
				c5,0,9-4,9-9v0v-41.1C277.1,132.4,273,128.4,268.1,128.4L268.1,128.4L268.1,128.4z"/>
			<path id="Path_2599" class="st9" d="M266,126.4h-70.1c-5,0-9,4-9,9v41.1c0,4.9,4.1,8.9,9,8.9h49.8l18.8,13.4v-13.4h1.6
				c4.9,0,8.9-4,8.9-8.9c0,0,0,0,0,0v-41.1C274.9,130.5,270.9,126.4,266,126.4z"/>
			<path id="Path_2600" class="st13" d="M265.7,141.7h-69.6c-0.4,0-0.7,0.3-0.7,0.7s0.3,0.7,0.7,0.7h69.6c0.4,0,0.7-0.3,0.7-0.7
				S266.1,141.7,265.7,141.7L265.7,141.7z"/>
			<path id="Path_2601" class="st13" d="M265.7,150.9h-69.6c-0.4,0-0.7,0.3-0.7,0.7c0,0.4,0.3,0.7,0.7,0.7h69.6
				c0.4,0,0.7-0.3,0.7-0.7C266.4,151.2,266.1,150.9,265.7,150.9L265.7,150.9z"/>
			<path id="Path_2602" class="st13" d="M244.9,160h-48.8c-0.4,0-0.7,0.3-0.7,0.7c0,0.4,0.3,0.7,0.7,0.7h48.8c0.4,0,0.7-0.3,0.7-0.7
				C245.6,160.3,245.3,160,244.9,160C244.9,160,244.9,160,244.9,160L244.9,160z"/>
			<path id="Path_2603" class="st13" d="M244.9,169.2h-48.8c-0.4,0-0.7,0.3-0.7,0.7c0,0.4,0.3,0.7,0.7,0.7h48.8
				c0.4,0,0.7-0.3,0.7-0.7C245.6,169.5,245.3,169.2,244.9,169.2C244.9,169.2,244.9,169.2,244.9,169.2L244.9,169.2z"/>
			<path id="Path_2604" class="st12" d="M230.5,201.7h-45.6c-3.2,0-5.8,2.6-5.8,5.8v26.7c0,3.2,2.6,5.8,5.8,5.8h32.3l12.2,8.7V240h1
				c3.2,0,5.8-2.6,5.8-5.8v-26.6C236.3,204.3,233.8,201.7,230.5,201.7C230.5,201.7,230.5,201.7,230.5,201.7L230.5,201.7z"/>
			<path id="Path_2605" class="st9" d="M229.1,200.4h-45.6c-3.2,0-5.8,2.6-5.8,5.8v26.7c0,3.2,2.6,5.8,5.8,5.8H216l12.2,8.7v-8.7h1
				c3.2,0,5.8-2.6,5.8-5.8v-26.7C235,203,232.4,200.4,229.1,200.4C229.2,200.4,229.2,200.4,229.1,200.4L229.1,200.4z"/>
			<path id="Path_2606" class="st13" d="M228.9,210.3h-45.2c-0.2,0-0.5,0.2-0.5,0.5c0,0.2,0.2,0.5,0.5,0.5l0,0h45.2
				c0.2,0,0.5-0.2,0.5-0.5C229.4,210.5,229.2,210.3,228.9,210.3z"/>
			<path id="Path_2607" class="st13" d="M228.9,216.3h-45.2c-0.3,0.1-0.4,0.3-0.4,0.6c0,0.2,0.2,0.3,0.4,0.4h45.2
				c0.3-0.1,0.4-0.3,0.4-0.6C229.3,216.4,229.1,216.3,228.9,216.3z"/>
			<path id="Path_2608" class="st13" d="M215.4,222.2h-31.7c-0.3,0.1-0.4,0.3-0.4,0.6c0,0.2,0.2,0.3,0.4,0.4h31.7
				c0.3-0.1,0.4-0.3,0.4-0.6C215.8,222.4,215.6,222.2,215.4,222.2z"/>
			<path id="Path_2609" class="st13" d="M215.4,228.2h-31.7c-0.2,0-0.5,0.2-0.5,0.5c0,0.2,0.2,0.5,0.5,0.5h31.7
				c0.2,0,0.5-0.2,0.5-0.5C215.9,228.4,215.7,228.2,215.4,228.2z"/>
			<path id="Path_2610" class="st13" d="M379.5,274.1c18.9,0.8,39.4,6.5,53.3,19.4c1.2,1,2.2,2.3,2.8,3.8c0.5,2.3,0.2,4.7-0.7,6.9
				c-8.2,26-8.6,53.8-1.3,80c1.9,6.8,4.4,13.5,5.1,20.6c0.7,7.1-0.7,14.7-5.6,19.8c-2.2,2.2-4.7,3.9-7.4,5.2
				c-15.2,7.7-33,7.4-49.9,6.7c-10.5-0.4-21-1-31.1-3.8c-10.1-2.9-19.8-8.3-25.9-16.8c-6.3-8.8-8.3-19.8-9-30.6
				c-1.8-24.5,1.5-49,2-73.5c0.1-7.2,0-14.4-2.8-21.1c12.9-9,28.4-14.4,43.8-17.4c3.2,4.2,8.2,6.7,13.4,6.7
				C371.3,280.2,376.2,278.1,379.5,274.1"/>
			<path id="Path_2611" class="st14" d="M430.6,401.7c-0.6-7,4.4-15.2,2.6-22c-4.5-17.3-13.1-34.2-11.2-52c-3.9,1.7-7.3,4.6-9.4,8.4
				c-1.5,3.3-2.2,6.8-2.1,10.4c0,7.2,1.3,14.2,1.5,21.4c0.3,7.1-0.6,14.7-4.6,20.5c-4.6,6.8-12.6,10.2-20.4,12.3
				c-5.3,1.3-10.6,2.4-16,3.2c-6.1,1.2-12.4,1.6-18.6,1c-6.3-0.6-12.2-3.5-16.5-8.2c-6.4-7.7-6.3-18.8-7.4-28.8
				c-1.3-11-4.6-21.8-9.7-31.6c-1.3-3-3.5-5.7-6.2-7.6l0,0c-1,17.9-11.3,36.7-10.1,54.6c0.7,10.8,11.6,21,17.5,29.8
				s14.6,13.9,23.9,16.8c9.3,2.8,19.1,3.4,28.7,3.9c15.7,0.7,32.1,1,46.1-6.7c2.6-1.3,4.9-3.1,6.9-5.2
				C430,416.4,431.3,408.8,430.6,401.7z"/>
			<path id="Path_2612" class="st13" d="M316.7,285.8c5.9,26,0.8,56.7-5.7,82.5c-1.9,7.7-1.5,16.1,1.2,20s7.8,6.5,12.3,8.5
				c9.7,4.5,18.5,10.8,25.7,18.8c3.4,3.2,5.9,7.1,7.5,11.4c1.6,4.4,0.8,9.3-1.9,13.1c-3.1,3.3-7.4,5-11.9,4.8c-4.4-0.2-8.8-1-13-2.2
				c-7.2-1.7-14.5-2.8-21.9-3.3c-6.4-0.4-12.8-0.4-19-2.2c-8.8-2.7-16.2-8.6-20.8-16.6c-4.5-8-6.4-17.1-5.4-26.2
				c0.6-4.8,1.6-9.6,3-14.3c5.2-19.5,12.4-36.5,19-55.5c3.1-8.3,7.3-16.1,12.4-23.3C303,294.5,308.5,287.2,316.7,285.8"/>
			<path id="Path_2613" class="st9" d="M318.8,335.3c3.5-16.1,2.3-33.8-1.5-49.7c-0.1-0.3-0.5-0.5-0.9-0.4c-0.3,0.1-0.5,0.4-0.4,0.7
				c2.7,11.3,3.7,22.9,3.2,34.5c-0.2,4.8-0.7,9.7-1.7,14.4C317.4,335.8,318.6,336.1,318.8,335.3L318.8,335.3z"/>
			<path id="Path_2614" class="st7" d="M366.7,427.2c0,0-17.4-4.3-23.9-0.6c-6.5,3.7-16.4,9.2-16.1,16.1v2.8c0,0,46.7,1.4,50.5-2.8"
				/>
			<path id="Path_2615" class="st13" d="M418.7,283.8c8.5,1,17.9,10.9,23.8,19.5s9.9,18.3,13.9,28l22.3,54.2
				c2.5,5.5,4.5,11.3,5.8,17.2c0.9,4.9,1,10,0.3,15c-0.5,4.1-2,8-4.4,11.4c-3.6,4.6-9.3,6.9-14.7,9c-11.5,4.4-23.3,8.5-35.5,9.3
				c-4.8,0.3-9.6,0.3-14.4,0c-13.4-0.5-26.8-1-39.9-3.4c-1-0.1-1.9-0.4-2.7-1c-0.7-0.7-1.3-1.5-1.7-2.5l-4-8.7
				c-0.9-1.6-1.3-3.3-1.4-5.1c0.5-2.4,1.8-4.5,3.7-5.9c4.6-4.3,10-7.8,15.7-10.4c11.9-5.3,25.4-6.6,36.5-13.3
				c1.4-0.8,2.6-1.7,3.8-2.8c4.1-4.3,3.9-11.4,1.6-16.9c-2.3-5.5-3.9-10.8-6.2-16.3c-5-12.3-7.6-20.4-7.8-30.9
				c-0.4-15,0.7-32.1,5.5-46.3"/>
			<path id="Path_2616" class="st14" d="M373.6,417.9c1.5,2.2,2.8,4.5,3.8,7c2.7,6.2,4.4,12.9,4.8,19.7c0,0.8,1.4,0.8,1.3,0
				c-0.4-6.8-2-13.5-4.7-19.8c-1.1-2.6-2.4-5.2-4.1-7.5C374.2,416.5,373.1,417.2,373.6,417.9L373.6,417.9z"/>
			<path id="Path_2617" class="st9" d="M413.3,336c-1.1-17.2,0.2-35.7,6.1-52c0.3-0.8-1-1.2-1.3-0.4c-5.9,16.4-7.2,35.1-6.1,52.3
				C412,336.8,413.3,336.8,413.3,336L413.3,336z"/>
			<path id="Rectangle_319" class="st15" d="M44.5,449.7h451c2.5,0,4.5,2,4.5,4.5v2.4c0,2.5-2,4.5-4.5,4.5h-451
				c-2.5,0-4.5-2-4.5-4.5v-2.4C40,451.7,42,449.7,44.5,449.7z"/>
			<path id="Rectangle_320" class="st16" d="M236.1,444.4h210.7c0.4,0,0.7,0.3,0.7,0.7v3.8c0,0.4-0.3,0.7-0.7,0.7H236.1
				c-0.4,0-0.7-0.3-0.7-0.7v-3.8C235.4,444.7,235.7,444.4,236.1,444.4z"/>
			<path id="Path_2618" class="st16" d="M328.5,449.7H147.5L138.7,324h177.4L328.5,449.7z"/>
			<path id="Path_2619" class="st17" d="M322.4,449.7h-181L132.6,324H310L322.4,449.7z"/>
			<path id="Path_2620" class="st12" d="M134.1,345.7l7.2,103.9h181l-2.4-24.6C224.7,412.7,159,366.2,134.1,345.7z"/>
			<g id="Group_971" transform="translate(57.047 52.687)">
				<path id="Rectangle_311" class="st9" d="M28.3,25.1L28.3,25.1c22.7,0,41.2,18.4,41.2,41.2l0,0l0,0c0,22.7-18.4,41.2-41.2,41.2
					l0,0c-22.7,0-41.2-18.4-41.2-41.2l0,0C-12.8,43.6,5.6,25.1,28.3,25.1z"/>
				<g id="_" transform="translate(17.976 18.418)">
					<g id="Group_1013">
						<path id="Path_2621" class="st18" d="M25.1,36.7c0,14.7-11.9,26.6-26.6,26.6c-0.6,0-1.2-0.4-1.4-1.1l-1.4-6
							C-4.4,55.6-4,55-3.4,54.7L3,52c0.6-0.3,1.2-0.1,1.6,0.4l2.8,3.5c4.5-2.1,8.1-5.7,10.2-10.2l-3.5-2.8c-0.5-0.4-0.7-1-0.4-1.6
							l2.8-6.4c0.3-0.6,0.9-0.9,1.6-0.8l6,1.4C24.7,35.5,25.1,36.1,25.1,36.7z"/>
					</g>
				</g>
			</g>
			<g id="Group_972" transform="translate(241.186 15.229)">
				<path id="Rectangle_311-2" class="st9" d="M116.1,7.3L116.1,7.3c22.7,0,41.1,18.4,41.1,41.1l0,0c0,22.7-18.4,41.1-41.1,41.1l0,0
					C93.4,89.5,75,71.1,75,48.4l0,0C75,25.7,93.4,7.3,116.1,7.3z"/>
				<g id="_2" transform="translate(16.992 17.492)">
					<g id="Group_1014">
						<path id="Path_2622" class="st19" d="M112.5,17.2L108.3,42c-0.1,0.8-0.9,1.3-1.6,1.1c-0.1,0-0.2,0-0.3-0.1l-7.2-3l-3.6,4.4
							c-0.5,0.6-1.4,0.7-2,0.2c-0.3-0.3-0.5-0.7-0.5-1.1v-4.6L107,22.1c0.1-0.1,0.1-0.4,0-0.5c-0.1-0.1-0.3-0.1-0.5,0L90,36.1
							l-6-2.6c-0.7-0.3-1-1.1-0.7-1.8c0.1-0.3,0.3-0.5,0.6-0.7l26.6-15.3c0.7-0.4,1.5-0.1,1.9,0.6C112.4,16.6,112.5,16.9,112.5,17.2
							L112.5,17.2z"/>
					</g>
				</g>
			</g>
			<path id="Path_2623" class="st20" d="M114.7,374c1.5,0.6,3.3,0.1,4.3-1.1c1.4-1.4,4.6-4.3,2.5-5.8c-2.1-1.5-3.5,2.2-5.2,3.2
				c0.3-1.3,0.4-2.6,0.2-3.8c0-0.6-0.3-1.4-1-1.4c-0.6-0.1-1,0.6-1.2,1.2l-1.6,3.9c-0.1-1.3-0.6-2.5-1.5-3.5
				c-0.4-0.5-0.9-0.7-1.5-0.7c-0.7,0.1-1,0.9-1.2,1.5c-0.8,3.8,1.7,7.5,5.5,8.3c0.2,0,0.3,0.1,0.5,0.1"/>
			<path id="Path_2624" class="st21" d="M117.5,429.6c5.4-11.5,9.7-22.7,10.3-35.5c0.3-6.2-1.5-14.6-6.3-18.5
				c-4.8-3.9-12.7-3-17.7,1.1c-4.9,4-7.5,10.3-9,16.6c-3.2,13.5,0.5,30.5,9.2,41.3c0.8,1.4,2.2,2.4,3.8,2.6c2.4,0.8,5,0,6.5-2.1"/>
			<path id="Path_2625" class="st22" d="M111.7,373.4c-2.4,2.3-4.2,5-5.4,8.1c-1.4,3.4-2.4,7-3,10.6c-1.3,7.7-1.3,15.5,0,23.1
				c0.9,4.8,2.2,9.5,3.8,14.1c0.2,0.6,1.1,0.3,0.9-0.3c-1.4-4.1-2.6-8.2-3.5-12.4c-0.8-4.1-1.2-8.2-1.2-12.4c-0.2-7.1,1-14.3,3.4-21
				c1.1-3.5,3.1-6.7,5.8-9.2C112.9,373.6,112.2,372.9,111.7,373.4L111.7,373.4z"/>
			<path id="Path_2626" class="st22" d="M116.2,373.8c2.4,7.1,3.3,14.6,2.6,22.1c-0.3,3.9-0.8,7.7-1.5,11.5
				c-0.6,3.2-1.3,6.4-2.1,9.5c-0.7,2.8-1.6,5.6-2.4,8.5c-0.1,0.2,0.1,0.5,0.3,0.6c0.2,0.1,0.5-0.1,0.6-0.3c0,0,0,0,0,0
				c1.7-5.5,3.2-11.2,4.3-16.9c1.6-7.5,2.1-15.3,1.6-22.9c-0.3-4.2-1.1-8.3-2.5-12.3C116.9,373,116,373.2,116.2,373.8L116.2,373.8z"
				/>
			<path id="Path_2627" class="st23" d="M93.3,426.6l3.5,23h25l5.5-23.6L93.3,426.6z"/>
			<path id="Path_2628" class="st23" d="M89.3,419.1h41c0.5,0,0.9,0.4,1,0.9c0,0.1,0,0.2,0,0.2l-2.5,9.6c-0.1,0.4-0.5,0.7-0.9,0.7
				l-36.1-1.2c-0.4,0-0.8-0.3-0.9-0.7l-2.5-8.4c-0.1-0.5,0.2-1,0.7-1.1C89.1,419.1,89.2,419.1,89.3,419.1L89.3,419.1z"/>
			<path id="Path_2629" class="st24" d="M125.8,430.8l-32.3-1.3l31.3,7.5L125.8,430.8z"/>
			<path id="Path_2630" class="st22" d="M103.3,381.3l-0.3,1.2c0,0.1,0,0.2,0,0.4c0.1,0.2,0.4,0.3,0.7,0.2c0.1-0.1,0.2-0.2,0.2-0.3
				l0.3-1.2c0-0.1,0-0.3,0-0.4c-0.1-0.2-0.4-0.3-0.7-0.2C103.4,381.1,103.3,381.2,103.3,381.3z"/>
			<path id="Path_2631" class="st22" d="M100.1,400.9l-0.1,1.3c0,0.1,0.1,0.3,0.1,0.3c0.2,0.2,0.5,0.2,0.7,0
				c0.1-0.1,0.1-0.2,0.1-0.3l0.1-1.3c0-0.1-0.1-0.2-0.1-0.3c-0.1-0.1-0.3-0.1-0.4-0.1c-0.1,0-0.2,0.1-0.3,0.1
				C100.2,400.7,100.1,400.8,100.1,400.9L100.1,400.9z"/>
			<path id="Path_2632" class="st22" d="M112.8,390.7c0,0.4-0.1,0.8-0.1,1.3c0,0.1,0.1,0.2,0.1,0.3c0.1,0.1,0.2,0.1,0.3,0.1
				c0.1,0,0.2-0.1,0.3-0.1c0.1-0.1,0.1-0.2,0.1-0.3l0.1-1.3c0-0.1,0-0.3-0.1-0.3c-0.1-0.1-0.2-0.1-0.3-0.1c-0.1,0-0.3,0.1-0.3,0.1
				C112.9,390.4,112.8,390.6,112.8,390.7z"/>
			<path id="Path_2633" class="st22" d="M98.6,389.6c-0.2,0.8-0.3,1.7-0.5,2.5c-0.1,0.3,0.1,0.5,0.3,0.6c0.3,0.1,0.5-0.1,0.6-0.3
				l0.5-2.5c0.1-0.3-0.1-0.5-0.3-0.6C98.9,389.2,98.7,389.3,98.6,389.6z"/>
			<path id="Path_2634" class="st22" d="M109.4,385l-0.5,2.5c0,0.3,0.2,0.5,0.4,0.5c0.2,0,0.4-0.1,0.5-0.3c0.2-0.8,0.3-1.7,0.5-2.5
				c0.1-0.3-0.1-0.5-0.3-0.6C109.7,384.6,109.5,384.7,109.4,385L109.4,385z"/>
			<path id="Path_2635" class="st22" d="M114.7,376.2v1.8c0,0.3,0.2,0.5,0.5,0.5c0.3,0,0.5-0.2,0.5-0.5c0,0,0,0,0,0v-1.8
				c0-0.3-0.2-0.5-0.5-0.5l0,0C114.9,375.7,114.7,375.9,114.7,376.2z"/>
			<path id="Path_2636" class="st22" d="M109.1,399.9v2.8c0,0.3,0.2,0.5,0.5,0.5c0,0,0,0,0,0c0.3,0,0.5-0.2,0.5-0.5v-2.8
				c0-0.3-0.2-0.5-0.5-0.5S109.1,399.6,109.1,399.9C109.1,399.9,109.1,399.9,109.1,399.9L109.1,399.9z"/>
			<path id="Path_2637" class="st22" d="M113.7,409.2v0.9c0,0.1,0.1,0.3,0.1,0.3c0.1,0.1,0.2,0.1,0.3,0.1c0.1,0,0.2-0.1,0.3-0.1
				c0.1-0.1,0.1-0.2,0.1-0.3v-0.9c0-0.1,0-0.2-0.1-0.3c-0.1-0.1-0.2-0.2-0.3-0.1c-0.1,0-0.3,0-0.3,0.1
				C113.8,409,113.7,409.1,113.7,409.2z"/>
			<path id="Path_2638" class="st22" d="M99.5,414.5v0.9c0,0.3,0.2,0.5,0.5,0.5c0.1,0,0.2-0.1,0.3-0.1c0.1-0.1,0.1-0.2,0.1-0.3v-0.9
				c0-0.1-0.1-0.3-0.1-0.3c-0.1-0.1-0.2-0.1-0.3-0.1c-0.1,0-0.3,0-0.3,0.1C99.6,414.2,99.5,414.3,99.5,414.5z"/>
			<path id="Path_2639" class="st22" d="M106.9,412.9v1.6c0,0.3,0.2,0.5,0.5,0.5c0,0,0,0,0,0c0.3,0,0.5-0.2,0.5-0.5v-1.6
				c0-0.3-0.2-0.5-0.5-0.5C107.2,412.5,107,412.7,106.9,412.9L106.9,412.9z"/>
			<path id="Path_2640" class="st22" d="M122.6,381.7c0.1,0.9,0.2,1.8,0.3,2.8c0,0.3,0.2,0.5,0.5,0.5l0,0c0.3,0,0.5-0.2,0.5-0.5
				c0,0,0,0,0,0c-0.1-0.9-0.2-1.9-0.3-2.8c0-0.3-0.2-0.5-0.5-0.5c0,0,0,0,0,0C122.9,381.2,122.6,381.4,122.6,381.7
				C122.6,381.7,122.6,381.7,122.6,381.7z"/>
			<path id="Path_2641" class="st22" d="M122.1,391.6v1.6c0,0.3,0.2,0.5,0.5,0.5c0.2,0,0.4-0.2,0.5-0.5v-1.5c0-0.3-0.2-0.5-0.5-0.5
				C122.3,391.2,122.1,391.4,122.1,391.6L122.1,391.6z"/>
			<path id="Path_2642" class="st22" d="M121.1,402.7v2.8c0,0.3,0.2,0.5,0.5,0.5c0.2,0,0.4-0.2,0.5-0.5v-2.8c0-0.3-0.2-0.5-0.5-0.5
				S121.2,402.4,121.1,402.7C121.1,402.7,121.1,402.7,121.1,402.7z"/>
			<path id="Path_2643" class="st22" d="M118.6,414.6c-0.1,0.4-0.2,0.8-0.3,1.2c-0.1,0.1-0.1,0.3,0,0.4c0.1,0.1,0.2,0.2,0.3,0.2
				c0.3,0.1,0.5-0.1,0.6-0.3l0.3-1.2c0-0.1,0-0.3,0-0.4c-0.1-0.1-0.2-0.2-0.3-0.2C118.9,414.2,118.7,414.4,118.6,414.6L118.6,414.6z
				"/>
			<path id="Path_2644" class="st22" d="M124.2,398.1v1.5c0,0.3,0.2,0.5,0.5,0.5c0.3,0,0.5-0.2,0.5-0.5c0,0,0,0,0,0v-1.5
				c0-0.3-0.2-0.5-0.5-0.5C124.4,397.6,124.2,397.8,124.2,398.1z"/>
			<path id="Path_2645" class="st21" d="M101,379.5c-1.4-1.1-2.7-2.2-4-3.4l3.1,5.2L101,379.5z"/>
			<path id="Path_2646" class="st21" d="M103.7,378.3l-1.6-1.8L103.7,378.3z"/>
			<path id="Path_2647" class="st21" d="M126.9,393.2l2.4-1l-3.4-0.3"/>
			<path id="Path_2648" class="st21" d="M122.7,413.9l2.1,1.3l0.2-0.8l-2.3,0.2h-0.3l0.4,0.6l0.6-1.5c0-0.2-0.1-0.5-0.4-0.5
				c-0.2,0-0.4,0.1-0.5,0.3l-0.5,1.5c-0.1,0.2,0.1,0.5,0.3,0.5c0,0,0.1,0,0.1,0l2.3-0.2h0.3c0.2,0,0.4-0.2,0.4-0.4
				c0-0.2-0.1-0.3-0.2-0.4l-2.1-1.3c-0.2-0.1-0.5-0.1-0.6,0.1C122.4,413.5,122.4,413.7,122.7,413.9z"/>
			<path id="Path_2649" class="st22" d="M95.5,407.3v2.5c0,0.3,0.2,0.5,0.5,0.5c0.3,0,0.5-0.2,0.5-0.5v-2.5c0-0.3-0.2-0.5-0.5-0.5
				C95.7,406.9,95.5,407.1,95.5,407.3L95.5,407.3z"/>
			<path id="Path_2650" class="st21" d="M94.5,403.4c-0.7,0.4-1.5,0.8-2.2,1.2l2.7,0.2"/>
			<path id="Path_2651" class="st9" d="M233.3,388.5L233.3,388.5c0.2-0.2,0.3-0.5,0.4-0.8l0,0c0.1-0.3,0.2-0.5,0.3-0.8l0,0
				c0-0.1,0-0.3,0-0.4l0,0c0-0.2,0-0.3,0-0.5l0,0v-0.5l0,0v-0.5l0,0c-0.2-1.3-0.8-2.6-1.6-3.6l1.9-2.2l-2.7,1.2l1.2-2.7l-2.1,1.9
				c-2.6-2.1-5.1-0.7-7,1.8l-0.3,0.4c-2.5-1-6-1.6-7.4-3.2c0.5,3.5,2.4,6.6,5.3,8.7c-0.2,1.6-0.9,3.1-2.1,4.3c0-0.4-1.1-2.2-1.8-1.1
				c-0.3,0.5,0,0.8,0.4,1c-1,0-2,0.2-1.8,0.9c0.2,0.7,1.2,0.5,2.1,0c-0.3,0.3-0.4,0.7,0,1c1.1,0.7,1.2-1.5,1.1-1.8
				c0.7,0.3,1.4,0.5,2.1,0.6l0,0l0.5,0.1h1.4c-0.4,0.4-0.9,0.8-1.5,1.1l0,0v0.1l0,0c0,0.3-0.1,0.5-0.3,0.7c-0.2,0.2-0.4,0.4-0.6,0.5
				c-0.2,0-0.2,0.2-0.2,0.4c0,0.2,0.2,0.2,0.4,0.2c0.1,0,0.1,0,0.1-0.1c0.3-0.2,0.6-0.4,0.8-0.6c0.1-0.1,0.2-0.3,0.3-0.5
				c0,0.1,0.1,0.2,0.1,0.2c0,0.3,0,0.6,0,0.8c0,0.1,0.1,0.3,0.2,0.3c0,0,0,0,0,0c0.2,0,0.3-0.1,0.3-0.3c0.1-0.3,0.1-0.7,0-1
				c-0.1-0.2-0.2-0.5-0.3-0.6c0.6-0.3,1.2-0.8,1.6-1.4h1.6c-0.3,0.4-0.7,0.8-1.2,1l0,0v0.1c0.1,0.3,0,0.5-0.1,0.7
				c-0.2,0.2-0.4,0.4-0.6,0.6c-0.1,0.1-0.1,0.3,0,0.4c0.1,0.1,0.3,0.1,0.4,0c0.3-0.2,0.5-0.5,0.7-0.8c0.1-0.2,0.2-0.3,0.2-0.5
				l0.1,0.2c0.1,0.3,0.1,0.5,0.2,0.8c0,0.2,0.1,0.3,0.3,0.3c0.2,0,0.3-0.2,0.3-0.3c0-0.3-0.1-0.7-0.2-1c-0.1-0.2-0.2-0.4-0.4-0.6
				c0.5-0.4,0.9-0.8,1.3-1.4l0,0l0.5-0.1h0.1l0.5-0.1l0,0l0.4-0.1l0,0l0.5-0.2l0,0l0.4-0.2l0,0l0.5-0.2l0,0l0.4-0.2l0,0
				c0.3-0.1,0.6-0.3,0.8-0.5l0,0l0.8-0.6l0,0c0.2-0.2,0.5-0.4,0.7-0.6l0,0C232.7,389,233,388.8,233.3,388.5L233.3,388.5z"/>
			<path id="Path_2652" class="st9" d="M233.6,381.5c1.3,1.6,1.7,3.7,1.3,5.7c2.8-2,4.7-5,5.2-8.4
				C238.9,380.1,236,380.7,233.6,381.5z"/>
		</g>
	</g>
</g>
</svg>
